<svg xmlns="http://www.w3.org/2000/svg" viewBox="0 0 400 400" fill="none" aria-hidden="true">
  <defs>
    <linearGradient id="hg" x1="0" y1="0" x2="400" y2="400" gradientUnits="userSpaceOnUse">
      <stop offset="0%" stop-color="#1e88b0" stop-opacity=".7"/>
      <stop offset="100%" stop-color="#11b8a1" stop-opacity=".7"/>
    </linearGradient>
  </defs>
  <g stroke="url(#hg)" stroke-width="3" stroke-linecap="round" fill="none">
    <path d="M80 30 C 320 90, 320 160, 80 220"/>
    <path d="M320 30 C 80 90, 80 160, 320 220"/>
    <path d="M80 220 C 320 280, 320 350, 80 410"/>
    <path d="M320 220 C 80 280, 80 350, 320 410"/>
  </g>
  <g stroke="#1e88b0" stroke-opacity=".5" stroke-width="2" stroke-linecap="round">
    <line x1="100" y1="50" x2="300" y2="50"/>
    <line x1="135" y1="80" x2="265" y2="80"/>
    <line x1="160" y1="115" x2="240" y2="115"/>
    <line x1="170" y1="150" x2="230" y2="150"/>
    <line x1="160" y1="185" x2="240" y2="185"/>
    <line x1="135" y1="215" x2="265" y2="215"/>
    <line x1="100" y1="245" x2="300" y2="245"/>
    <line x1="135" y1="280" x2="265" y2="280"/>
    <line x1="160" y1="315" x2="240" y2="315"/>
    <line x1="170" y1="350" x2="230" y2="350"/>
    <line x1="160" y1="380" x2="240" y2="380"/>
  </g>
  <g fill="#11b8a1">
    <circle cx="100" cy="50" r="4"/><circle cx="300" cy="50" r="4"/>
    <circle cx="135" cy="80" r="4"/><circle cx="265" cy="80" r="4"/>
    <circle cx="160" cy="115" r="4"/><circle cx="240" cy="115" r="4"/>
    <circle cx="170" cy="150" r="4"/><circle cx="230" cy="150" r="4"/>
    <circle cx="160" cy="185" r="4"/><circle cx="240" cy="185" r="4"/>
    <circle cx="135" cy="215" r="4"/><circle cx="265" cy="215" r="4"/>
    <circle cx="100" cy="245" r="4"/><circle cx="300" cy="245" r="4"/>
    <circle cx="135" cy="280" r="4"/><circle cx="265" cy="280" r="4"/>
    <circle cx="160" cy="315" r="4"/><circle cx="240" cy="315" r="4"/>
    <circle cx="170" cy="350" r="4"/><circle cx="230" cy="350" r="4"/>
    <circle cx="160" cy="380" r="4"/><circle cx="240" cy="380" r="4"/>
  </g>
</svg>
